<svg xmlns="http://www.w3.org/2000/svg" viewBox="0 0 32 32" shape-rendering="crispEdges">
	<rect width="32" height="32" rx="4.5" fill="#191512"/>
	<rect x="13" y="8" width="6" height="1" fill="#000000"/>
	<rect x="12" y="9" width="1" height="1" fill="#000000"/>
	<rect x="13" y="9" width="6" height="1" fill="#fefefe"/>
	<rect x="19" y="9" width="1" height="1" fill="#000000"/>
	<rect x="11" y="10" width="1" height="1" fill="#000000"/>
	<rect x="12" y="10" width="1" height="1" fill="#fefefe"/>
	<rect x="13" y="10" width="6" height="1" fill="#000000"/>
	<rect x="19" y="10" width="1" height="1" fill="#fefefe"/>
	<rect x="20" y="10" width="1" height="1" fill="#000000"/>
	<rect x="10" y="11" width="1" height="1" fill="#000000"/>
	<rect x="11" y="11" width="1" height="1" fill="#fefefe"/>
	<rect x="12" y="11" width="8" height="1" fill="#000000"/>
	<rect x="20" y="11" width="1" height="1" fill="#fefefe"/>
	<rect x="21" y="11" width="1" height="1" fill="#000000"/>
	<rect x="9" y="12" width="1" height="1" fill="#000000"/>
	<rect x="10" y="12" width="1" height="1" fill="#fefefe"/>
	<rect x="11" y="12" width="10" height="1" fill="#000000"/>
	<rect x="21" y="12" width="1" height="1" fill="#fefefe"/>
	<rect x="22" y="12" width="1" height="1" fill="#000000"/>
	<rect x="7" y="13" width="1" height="1" fill="#000000"/>
	<rect x="9" y="13" width="1" height="1" fill="#000000"/>
	<rect x="10" y="13" width="1" height="1" fill="#fefefe"/>
	<rect x="11" y="13" width="10" height="1" fill="#000000"/>
	<rect x="21" y="13" width="1" height="1" fill="#fefefe"/>
	<rect x="22" y="13" width="1" height="1" fill="#000000"/>
	<rect x="24" y="13" width="1" height="1" fill="#000000"/>
	<rect x="6" y="14" width="1" height="1" fill="#000000"/>
	<rect x="7" y="14" width="1" height="1" fill="#fefefe"/>
	<rect x="8" y="14" width="1" height="1" fill="#000000"/>
	<rect x="10" y="14" width="1" height="1" fill="#000000"/>
	<rect x="11" y="14" width="10" height="1" fill="#fe9e20"/>
	<rect x="21" y="14" width="1" height="1" fill="#000000"/>
	<rect x="23" y="14" width="1" height="1" fill="#000000"/>
	<rect x="24" y="14" width="1" height="1" fill="#fefefe"/>
	<rect x="25" y="14" width="1" height="1" fill="#000000"/>
	<rect x="5" y="15" width="1" height="1" fill="#000000"/>
	<rect x="6" y="15" width="1" height="1" fill="#fefefe"/>
	<rect x="7" y="15" width="1" height="1" fill="#000000"/>
	<rect x="8" y="15" width="1" height="1" fill="#fefefe"/>
	<rect x="9" y="15" width="2" height="1" fill="#000000"/>
	<rect x="11" y="15" width="10" height="1" fill="#fe9e20"/>
	<rect x="21" y="15" width="2" height="1" fill="#000000"/>
	<rect x="23" y="15" width="1" height="1" fill="#fefefe"/>
	<rect x="24" y="15" width="1" height="1" fill="#000000"/>
	<rect x="25" y="15" width="1" height="1" fill="#fefefe"/>
	<rect x="26" y="15" width="1" height="1" fill="#000000"/>
	<rect x="4" y="16" width="1" height="1" fill="#000000"/>
	<rect x="5" y="16" width="1" height="1" fill="#fefefe"/>
	<rect x="6" y="16" width="2" height="1" fill="#000000"/>
	<rect x="8" y="16" width="1" height="1" fill="#fefefe"/>
	<rect x="9" y="16" width="1" height="1" fill="#000000"/>
	<rect x="10" y="16" width="1" height="1" fill="#fefefe"/>
	<rect x="11" y="16" width="10" height="1" fill="#000000"/>
	<rect x="21" y="16" width="1" height="1" fill="#fefefe"/>
	<rect x="22" y="16" width="1" height="1" fill="#000000"/>
	<rect x="23" y="16" width="1" height="1" fill="#fefefe"/>
	<rect x="24" y="16" width="2" height="1" fill="#000000"/>
	<rect x="26" y="16" width="1" height="1" fill="#fefefe"/>
	<rect x="27" y="16" width="1" height="1" fill="#000000"/>
	<rect x="4" y="17" width="1" height="1" fill="#000000"/>
	<rect x="5" y="17" width="1" height="1" fill="#fefefe"/>
	<rect x="6" y="17" width="2" height="1" fill="#000000"/>
	<rect x="8" y="17" width="1" height="1" fill="#fefefe"/>
	<rect x="9" y="17" width="1" height="1" fill="#000000"/>
	<rect x="10" y="17" width="1" height="1" fill="#fefefe"/>
	<rect x="11" y="17" width="10" height="1" fill="#000000"/>
	<rect x="21" y="17" width="1" height="1" fill="#fefefe"/>
	<rect x="22" y="17" width="1" height="1" fill="#000000"/>
	<rect x="23" y="17" width="1" height="1" fill="#fefefe"/>
	<rect x="24" y="17" width="2" height="1" fill="#000000"/>
	<rect x="26" y="17" width="1" height="1" fill="#fefefe"/>
	<rect x="27" y="17" width="1" height="1" fill="#000000"/>
	<rect x="4" y="18" width="1" height="1" fill="#000000"/>
	<rect x="5" y="18" width="1" height="1" fill="#fefefe"/>
	<rect x="6" y="18" width="2" height="1" fill="#000000"/>
	<rect x="8" y="18" width="1" height="1" fill="#fefefe"/>
	<rect x="9" y="18" width="1" height="1" fill="#000000"/>
	<rect x="10" y="18" width="1" height="1" fill="#fefefe"/>
	<rect x="11" y="18" width="10" height="1" fill="#000000"/>
	<rect x="21" y="18" width="1" height="1" fill="#fefefe"/>
	<rect x="22" y="18" width="1" height="1" fill="#000000"/>
	<rect x="23" y="18" width="1" height="1" fill="#fefefe"/>
	<rect x="24" y="18" width="2" height="1" fill="#000000"/>
	<rect x="26" y="18" width="1" height="1" fill="#fefefe"/>
	<rect x="27" y="18" width="1" height="1" fill="#000000"/>
	<rect x="4" y="19" width="1" height="1" fill="#000000"/>
	<rect x="5" y="19" width="1" height="1" fill="#fefefe"/>
	<rect x="6" y="19" width="2" height="1" fill="#000000"/>
	<rect x="8" y="19" width="1" height="1" fill="#fefefe"/>
	<rect x="9" y="19" width="1" height="1" fill="#000000"/>
	<rect x="10" y="19" width="1" height="1" fill="#fefefe"/>
	<rect x="11" y="19" width="10" height="1" fill="#000000"/>
	<rect x="21" y="19" width="1" height="1" fill="#fefefe"/>
	<rect x="22" y="19" width="1" height="1" fill="#000000"/>
	<rect x="23" y="19" width="1" height="1" fill="#fefefe"/>
	<rect x="24" y="19" width="2" height="1" fill="#000000"/>
	<rect x="26" y="19" width="1" height="1" fill="#fefefe"/>
	<rect x="27" y="19" width="1" height="1" fill="#000000"/>
	<rect x="4" y="20" width="1" height="1" fill="#000000"/>
	<rect x="5" y="20" width="1" height="1" fill="#fefefe"/>
	<rect x="6" y="20" width="2" height="1" fill="#000000"/>
	<rect x="8" y="20" width="1" height="1" fill="#fefefe"/>
	<rect x="9" y="20" width="2" height="1" fill="#000000"/>
	<rect x="11" y="20" width="1" height="1" fill="#fefefe"/>
	<rect x="12" y="20" width="8" height="1" fill="#000000"/>
	<rect x="20" y="20" width="1" height="1" fill="#fefefe"/>
	<rect x="21" y="20" width="2" height="1" fill="#000000"/>
	<rect x="23" y="20" width="1" height="1" fill="#fefefe"/>
	<rect x="24" y="20" width="2" height="1" fill="#000000"/>
	<rect x="26" y="20" width="1" height="1" fill="#fefefe"/>
	<rect x="27" y="20" width="1" height="1" fill="#000000"/>
	<rect x="5" y="21" width="1" height="1" fill="#000000"/>
	<rect x="6" y="21" width="3" height="1" fill="#fefefe"/>
	<rect x="9" y="21" width="2" height="1" fill="#000000"/>
	<rect x="11" y="21" width="1" height="1" fill="#fefefe"/>
	<rect x="12" y="21" width="8" height="1" fill="#000000"/>
	<rect x="20" y="21" width="1" height="1" fill="#fefefe"/>
	<rect x="21" y="21" width="2" height="1" fill="#000000"/>
	<rect x="23" y="21" width="3" height="1" fill="#fefefe"/>
	<rect x="26" y="21" width="1" height="1" fill="#000000"/>
	<rect x="6" y="22" width="3" height="1" fill="#000000"/>
	<rect x="11" y="22" width="1" height="1" fill="#000000"/>
	<rect x="12" y="22" width="1" height="1" fill="#fefefe"/>
	<rect x="13" y="22" width="6" height="1" fill="#000000"/>
	<rect x="19" y="22" width="1" height="1" fill="#fefefe"/>
	<rect x="20" y="22" width="1" height="1" fill="#000000"/>
	<rect x="23" y="22" width="3" height="1" fill="#000000"/>
	<rect x="12" y="23" width="1" height="1" fill="#000000"/>
	<rect x="13" y="23" width="6" height="1" fill="#fefefe"/>
	<rect x="19" y="23" width="1" height="1" fill="#000000"/>
	<rect x="13" y="24" width="6" height="1" fill="#000000"/>
</svg>
